@startuml
'https://plantuml.com/class-diagram

title vet.oodm Class Diagram

left to right direction
'top to bottom direction

scale 2000 width

package vet.oodm {

    package vet.oodm.entities {

        entity VetEntity {
            Long id
            String uuid
            String firstname
            String lastname
        }

        entity SpecialtyEntity {
            Long id
            String uuid
            String name
        }

        VetEntity "one" o--> "many" SpecialtyEntity: specialties
    }

    package vet.oodm.service {

        class VetService {

        }

        class SpecialtyService {

        }

        package vet.oodm.service.dao {
            class VetDao {

            }
            class SpecialtyDao {

            }
        }

        VetService o--> VetDao
        SpecialtyService o--> SpecialtyDao

        VetDao ..> VetEntity
        SpecialtyDao ..> SpecialtyEntity
    }

    package vet.oodm.transients {

        class VetDto {
            String uuid
            String firstname
            String lastname
        }

        class SpecialtyDto {
            String uuid
            String name
        }

        VetDto "one" o--> "many" SpecialtyDto: specialties

        VetDto ..> VetService
        SpecialtyDto ..> SpecialtyService
    }
}

@enduml