@startuml

title Specialty State Diagram

'https://plantuml.com/state-diagram

left to right direction
'top to bottom direction

scale 1000 width

[*] --> SPECIALTY_LIST


SPECIALTY_LIST --> SPECIALTY_NEW : button_addNew_dialog()
SPECIALTY_NEW --> SPECIALTY_LIST: button_cancel_and_back()
SPECIALTY_NEW --> SPECIALTY_LIST2: button_addNew_perform() OK

SPECIALTY_LIST --> SPECIALTY_EDIT: button_edit_dialog()
SPECIALTY_EDIT --> SPECIALTY_LIST: button_cancel_and_back()
SPECIALTY_EDIT --> SPECIALTY_LIST3: button_update_perform() OK

SPECIALTY_LIST --> SPECIALTY_DELETE: button_delete_dialog()
SPECIALTY_DELETE --> SPECIALTY_LIST: button_acancel_and_back()
SPECIALTY_DELETE --> SPECIALTY_LIST4: button_delete_perform() OK

SPECIALTY_LIST2 --> [*]
SPECIALTY_LIST3 --> [*]
SPECIALTY_LIST4 --> [*]


state SPECIALTY_NEW {
    SPECIALTY_NEW --> SPECIALTY_NEW : button_addNew_perform() not OK, invalid
}
state SPECIALTY_EDIT {
    SPECIALTY_EDIT --> SPECIALTY_EDIT: button_update_perform() not OK, invalid
}
state SPECIALTY_DELETE {
    SPECIALTY_DELETE --> SPECIALTY_DELETE: button_delete_perform() not OK, invalid
}


@enduml