@startuml
'https://plantuml.com/class-diagram

title vet.oodm Class Diagram

left to right direction
'top to bottom direction

scale 1000 width

package vet.oodm {

    package vet.oodm.entities {

        entity VetEntity {
            Long id
            String uuid
            String firstname
            String lastname
        }

        entity SpecialtyEntity {
            Long id
            String uuid
            String name
        }

        VetEntity "one" o--> "many" SpecialtyEntity: specialties
    }

    package vet.oodm.service {

        class VetService {
            search(String): VetEntity[]
            getAll(): VetEntity[]
            addNew(VetEntity): VetEntity
            update(VetEntity): VetEntity
            delete(VetEntity)
        }

        class SpecialtyService {
            search(String): SpecialtyEntity[]
            getAll(): SpecialtyEntity[]
            addNew(SpecialtyEntity): SpecialtyEntity
            update(SpecialtyEntity): SpecialtyEntity
            delete(SpecialtyEntity)
        }

        package vet.oodm.service.dao {

            class VetDao {
                search(String): VetEntity[]
                getAll(): VetEntity[]
                addNew(VetEntity): VetEntity
                update(VetEntity): VetEntity
                delete(VetEntity)
            }

            class SpecialtyDao {
                search(String): SpecialtyEntity[]
                getAll(): SpecialtyEntity[]
                addNew(SpecialtyEntity): SpecialtyEntity
                update(SpecialtyEntity): SpecialtyEntity
                delete(SpecialtyEntity)
            }
        }

        VetService o--> VetDao
        SpecialtyService o--> SpecialtyDao

        VetDao ..> VetEntity
        SpecialtyDao ..> SpecialtyEntity
    }

    package vet.oodm.transients {

        class VetDto {
            String uuid
            String firstname
            String lastname
        }

        class SpecialtyDto {
            String uuid
            String name
        }

        VetDto "one" o--> "many" SpecialtyDto: specialties

        VetDto ..> VetService
        SpecialtyDto ..> SpecialtyService
    }
}

@enduml